<svg width="200" height="200" xmlns="http://www.w3.org/2000/svg">

 <g>
  <title>background</title>
  <rect fill="none" id="canvas_background" height="402" width="582" y="-1" x="-1"/>
 </g>
 <g>
  <title>Layer 1</title>
  <path fill="#3d3dbb" id="svg_3" d="m100,197.5c-53.8,0 -97.5,-43.7 -97.5,-97.5s43.7,-97.5 97.5,-97.5s97.5,43.7 97.5,97.5s-43.7,97.5 -97.5,97.5z" class="st25"/>
  <path stroke-miterlimit="10" stroke-linejoin="round" stroke-linecap="round" stroke-width="3" stroke="#ffffff" fill="#f2f2f2" id="svg_6" d="m165.57192,65.5c-0.4,-1 -0.5,-2.2 -4.1,-1.1l-5.3,2.7c2.6,-2.4 6.2,-6 6.7,-8.2c0.1,-0.2 -0.2,-1 -0.2,-1c-0.6,-0.8 -1,-2 -4.2,0l-6.9,3.8c-1.2,-1.9 -2.6,-3.6 -4.1,-5.1c-0.1,-0.1 -0.2,-0.2 -0.2,-0.2c-4.6,-4.2 -10.7,-6.8 -17.4,-6.8c-14.2,0 -25.8,11.5 -25.8,25.8c0,1.4 0.1,2.8 0.3,4.2c-44.8,-17.5 -48.6,-25.3 -56.2,-28.6c0,0 -13.4,18.5 11.4,32.6c-4.4,-2.3 -11.2,-5.7 -12.6,-5.7c0,0 -8.8,19.7 24,31.2c1.4,0.5 -12.7,-3.3 -12.8,-1.8c-1.4,20.7 10.9,22.2 19.9,21.2c-6,5.2 -18.8,8.1 -26.7,9.7c-1.4,0.3 -4.3,0.7 -4.3,0.7c-0.5,0.1 -4.1,0.6 -4.5,0.8c-1.5,0.8 -0.8,2.3 -0.1,2.9c12.2,10.4 40,10.7 56.4,7.8c31.7,-5.6 58.2,-29 58.2,-64.8c0,-4.2 -0.4,-7.8 -1.1,-11c3,-2 8.5,-6 9.7,-8.2c0,-0.1 -0.1,-0.9 -0.1,-0.9z" class="st3"/>
 </g>
</svg>