<svg width="60" height="60" xmlns="http://www.w3.org/2000/svg">
 <title/>

 <g>
  <title>background</title>
  <rect fill="none" id="canvas_background" height="402" width="582" y="-1" x="-1"/>
 </g>
 <g>
  <title>Layer 1</title>
  <path id="svg_1" fill="#3d3dbb" d="m30,60c16.56854,0 30,-13.43146 30,-30c0,-16.56854 -13.43146,-30 -30,-30c-16.56854,0 -30,13.43146 -30,30c0,16.56854 13.43146,30 30,30z"/>
  <path id="svg_2" fill="#FFFFFF" d="m43.21519,27.821464l-23.43356,0c-3.7254,0 -6.74455,2.74891 -6.74455,6.45126l0,6.45941c0,3.70194 3.01915,6.70472 6.74455,6.70472l23.43356,0c3.72456,0 6.74497,-3.00237 6.74497,-6.70472l0,-6.40839c0,-3.70235 -3.02041,-6.50228 -6.74497,-6.50228zm-18.83819,5.25374l-2.25952,0l0,10.44205l-2.18424,0l0,-10.44205l-2.25908,0l0,-1.77699l6.70284,0l0,1.77699zm5.78781,10.88808l-1.93754,0l0,-0.98792c-0.35983,0.36562 -0.73011,0.64409 -1.11866,0.83264c-0.38681,0.19608 -0.76144,0.28877 -1.12562,0.28877c-0.44991,0 -0.78363,-0.13349 -1.01337,-0.40364c-0.22452,-0.26976 -0.34026,-0.66865 -0.34026,-1.20816l0,-7.53693l1.93754,0l0,6.91621c0,0.21311 0.04221,0.3672 0.12009,0.46108c0.08398,0.09863 0.21668,0.1434 0.39856,0.1434c0.13967,0 0.32198,-0.06219 0.53953,-0.18856c0.22017,-0.12755 0.41901,-0.28877 0.60132,-0.48445l0,-6.84768l1.93754,0l0,9.01524l0.00087,0zm8.11869,-2.10893c0,0.63656 -0.15142,1.12576 -0.45556,1.46761c-0.30197,0.34106 -0.74317,0.75698 -1.31664,0.75698c-0.38159,0 -1.26312,-0.06377 -1.55812,-0.19607c-0.29631,-0.13033 -0.57565,-0.33195 -0.82845,-0.61042l0,0.69043l-1.95929,0l0,-12.46661l1.95929,0l0,4.183c0.26237,-0.27253 0.53954,-0.48286 0.82975,-0.62507c0.29631,-0.14498 1.13738,-0.2147 1.43847,-0.2147c0.61394,0 1.08212,-0.05783 1.40497,0.3268c0.32459,0.38463 0.48514,0.94751 0.48514,1.68548l0,5.00257l0.00044,0zm7.04745,-2.33036l-3.70669,0l0,1.69855c0,0.47415 0.06178,0.80333 0.18883,0.98752c0.12967,0.18459 0.34809,0.27411 0.65702,0.27411c0.32198,0 0.54606,-0.07803 0.67442,-0.2337c0.12574,-0.15687 0.19275,-0.49753 0.19275,-1.02833l0,-0.41037l1.9941,0l0,0.46266c0,0.92375 -0.24105,1.62012 -0.73098,2.08992c-0.48297,0.46425 -1.2083,0.69637 -2.17467,0.69637c-0.86848,0 -1.5529,-0.24638 -2.05067,-0.74272c-0.49602,-0.49158 -0.74882,-1.17488 -0.74882,-2.04357l0,-4.04951c0,-0.77916 0.27499,-1.42008 0.82453,-1.91166c0.54867,-0.49158 1.25181,-0.73678 2.12115,-0.73678c0.88762,0 1.56944,0.22777 2.04588,0.6833c0.47601,0.45673 0.71402,1.11111 0.71402,1.96554l0,2.29867l-0.00087,0zm-2.84257,-3.37096c-0.30979,0 -0.52865,0.0812 -0.66397,0.24955c-0.13619,0.15766 -0.20015,0.42939 -0.20015,0.80769l0,0.91107l1.71302,0l0,-0.91107c0,-0.3783 -0.06918,-0.65003 -0.2045,-0.80769c-0.1314,-0.16835 -0.34983,-0.24955 -0.6444,-0.24955zm-7.55261,0.11804c-0.13793,0 -0.27629,0.02733 -0.41117,0.08715c-0.13489,0.05783 -0.2676,0.1525 -0.39943,0.2757l0,5.61615c0.15577,0.14498 0.31023,0.25668 0.45947,0.32085c0.14968,0.06219 0.30327,0.09705 0.46731,0.09705c0.23844,0 0.95549,-0.06377 1.06732,-0.19291c0.11008,-0.12755 0.16751,-0.33194 0.16751,-0.62032l0,-4.65675c0,-0.30581 -0.06613,-0.53555 -0.20363,-0.69321c-0.14097,-0.15528 -0.88675,-0.23371 -1.14738,-0.23371zm2.43361,-10.68894c0.39464,0 0.80103,-0.11358 1.21957,-0.33244c0.4219,-0.22177 0.82577,-0.54633 1.20993,-0.96996l0,1.15027l2.10447,0l0,-10.391l-2.10447,0l0,7.88817c-0.1946,0.22591 -0.41184,0.4112 -0.64669,0.55877c-0.23737,0.1459 -0.43365,0.21803 -0.58798,0.21803c-0.19711,0 -0.34138,-0.05472 -0.42693,-0.16663c-0.08808,-0.10944 -0.1363,-0.28685 -0.1363,-0.53099l0,-7.96735l-2.09987,0l0,8.68487c0,0.61928 0.12414,1.08229 0.36822,1.38903c0.24744,0.3113 0.61105,0.46923 1.10005,0.46923zm-6.18928,0.11108c0.95536,0 1.70522,-0.25368 2.25251,-0.75897c0.54269,-0.5086 0.81487,-1.20208 0.81487,-2.09163l0,-5.36918c0,-0.79047 -0.27847,-1.44208 -0.8308,-1.94406c-0.5582,-0.50073 -1.27074,-0.75275 -2.14138,-0.75275c-0.95536,0 -1.7178,0.23834 -2.28313,0.71503c-0.56534,0.47669 -0.848,1.11545 -0.848,1.92334l0,5.38659c0,0.88374 0.27595,1.58302 0.82703,2.10696c0.55191,0.52187 1.28835,0.78467 2.2089,0.78467zm-0.87232,-8.35781c0,-0.22632 0.08052,-0.40829 0.23905,-0.55089c0.1623,-0.13969 0.36989,-0.20808 0.62614,-0.20808c0.27889,0 0.50368,0.06839 0.67521,0.20808c0.17069,0.1426 0.25624,0.32457 0.25624,0.55089l0,5.66141c0,0.27773 -0.08429,0.49783 -0.25289,0.65742c-0.16817,0.15959 -0.3938,0.23793 -0.67898,0.23793c-0.27763,0 -0.49236,-0.07586 -0.64124,-0.23503c-0.14888,-0.15627 -0.22395,-0.37472 -0.22395,-0.66032l0,-5.66141l0.00042,0zm-7.45793,8.09501l2.36743,0l0,-6.67282l2.75536,-8.24382l-2.40601,0l-1.46533,5.63157l-0.14888,0l-1.53747,-5.63157l-2.38504,0l2.81952,8.50621l0,6.41043l0.00042,0z"/>
 </g>
</svg>